<mxfile host="app.diagrams.net" agent="Mozilla/5.0 (Windows NT 10.0; Win64; x64) AppleWebKit/537.36 (KHTML, like Gecko) Chrome/129.0.0.0 Safari/537.36" version="24.7.17" pages="2">
  <diagram name="Sayfa -1" id="fxQv9mF8PkzMU13zv8G7">
    <mxGraphModel dx="1434" dy="772" grid="1" gridSize="10" guides="1" tooltips="1" connect="1" arrows="1" fold="1" page="1" pageScale="1" pageWidth="827" pageHeight="1169" math="0" shadow="0">
      <root>
        <mxCell id="0" />
        <mxCell id="1" parent="0" />
      </root>
    </mxGraphModel>
  </diagram>
  <diagram id="NQuop2XZ-K7sBWrvieud" name="Sayfa -2">
    <mxGraphModel dx="1434" dy="772" grid="1" gridSize="10" guides="1" tooltips="1" connect="1" arrows="1" fold="1" page="1" pageScale="1" pageWidth="827" pageHeight="1169" math="0" shadow="0">
      <root>
        <mxCell id="0" />
        <mxCell id="1" parent="0" />
        <mxCell id="kKzOYmPIptr4s1DpzFux-1" value="Cluster" style="whiteSpace=wrap;strokeWidth=2;" vertex="1" parent="1">
          <mxGeometry x="836" y="266" width="413" height="99" as="geometry" />
        </mxCell>
        <mxCell id="kKzOYmPIptr4s1DpzFux-2" value="Namespace" style="whiteSpace=wrap;strokeWidth=2;" vertex="1" parent="1">
          <mxGeometry x="20" y="20" width="796" height="469" as="geometry" />
        </mxCell>
        <mxCell id="kKzOYmPIptr4s1DpzFux-3" value="Pod" style="whiteSpace=wrap;strokeWidth=2;" vertex="1" parent="1">
          <mxGeometry x="326" y="291" width="86" height="49" as="geometry" />
        </mxCell>
        <mxCell id="kKzOYmPIptr4s1DpzFux-4" value="Service" style="whiteSpace=wrap;strokeWidth=2;" vertex="1" parent="1">
          <mxGeometry x="55" y="415" width="112" height="49" as="geometry" />
        </mxCell>
        <mxCell id="kKzOYmPIptr4s1DpzFux-5" value="ConfigMap" style="whiteSpace=wrap;strokeWidth=2;" vertex="1" parent="1">
          <mxGeometry x="217" y="415" width="134" height="49" as="geometry" />
        </mxCell>
        <mxCell id="kKzOYmPIptr4s1DpzFux-6" value="Secret" style="whiteSpace=wrap;strokeWidth=2;" vertex="1" parent="1">
          <mxGeometry x="401" y="415" width="106" height="49" as="geometry" />
        </mxCell>
        <mxCell id="kKzOYmPIptr4s1DpzFux-7" value="PersistentVolumeClaim" style="whiteSpace=wrap;strokeWidth=2;" vertex="1" parent="1">
          <mxGeometry x="557" y="415" width="224" height="49" as="geometry" />
        </mxCell>
        <mxCell id="kKzOYmPIptr4s1DpzFux-8" value="Deployment" style="whiteSpace=wrap;strokeWidth=2;" vertex="1" parent="1">
          <mxGeometry x="55" y="144" width="146" height="49" as="geometry" />
        </mxCell>
        <mxCell id="kKzOYmPIptr4s1DpzFux-9" value="ReplicaSet" style="whiteSpace=wrap;strokeWidth=2;" vertex="1" parent="1">
          <mxGeometry x="169" y="45" width="135" height="49" as="geometry" />
        </mxCell>
        <mxCell id="kKzOYmPIptr4s1DpzFux-10" value="Ingress" style="whiteSpace=wrap;strokeWidth=2;" vertex="1" parent="1">
          <mxGeometry x="871" y="291" width="110" height="49" as="geometry" />
        </mxCell>
        <mxCell id="kKzOYmPIptr4s1DpzFux-11" value="PersistentVolume" style="whiteSpace=wrap;strokeWidth=2;" vertex="1" parent="1">
          <mxGeometry x="1031" y="291" width="183" height="49" as="geometry" />
        </mxCell>
        <mxCell id="kKzOYmPIptr4s1DpzFux-12" value="API Server" style="whiteSpace=wrap;strokeWidth=2;" vertex="1" parent="1">
          <mxGeometry x="851" y="144" width="135" height="49" as="geometry" />
        </mxCell>
        <mxCell id="kKzOYmPIptr4s1DpzFux-13" value="" style="curved=1;startArrow=none;endArrow=block;exitX=0;exitY=0.65;entryX=0.34;entryY=0;rounded=0;" edge="1" parent="1" source="kKzOYmPIptr4s1DpzFux-3" target="kKzOYmPIptr4s1DpzFux-4">
          <mxGeometry relative="1" as="geometry">
            <Array as="points">
              <mxPoint x="75" y="365" />
              <mxPoint x="75" y="390" />
            </Array>
          </mxGeometry>
        </mxCell>
        <mxCell id="kKzOYmPIptr4s1DpzFux-14" value="" style="curved=1;startArrow=none;endArrow=block;exitX=0.01;exitY=1;entryX=0.5;entryY=0;rounded=0;" edge="1" parent="1" source="kKzOYmPIptr4s1DpzFux-3" target="kKzOYmPIptr4s1DpzFux-5">
          <mxGeometry relative="1" as="geometry">
            <Array as="points">
              <mxPoint x="284" y="365" />
            </Array>
          </mxGeometry>
        </mxCell>
        <mxCell id="kKzOYmPIptr4s1DpzFux-15" value="" style="curved=1;startArrow=none;endArrow=block;exitX=0.99;exitY=1;entryX=0.5;entryY=0;rounded=0;" edge="1" parent="1" source="kKzOYmPIptr4s1DpzFux-3" target="kKzOYmPIptr4s1DpzFux-6">
          <mxGeometry relative="1" as="geometry">
            <Array as="points">
              <mxPoint x="454" y="365" />
            </Array>
          </mxGeometry>
        </mxCell>
        <mxCell id="kKzOYmPIptr4s1DpzFux-16" value="" style="curved=1;startArrow=none;endArrow=block;exitX=1;exitY=0.71;entryX=0.29;entryY=0;rounded=0;" edge="1" parent="1" source="kKzOYmPIptr4s1DpzFux-3" target="kKzOYmPIptr4s1DpzFux-7">
          <mxGeometry relative="1" as="geometry">
            <Array as="points">
              <mxPoint x="572" y="365" />
              <mxPoint x="572" y="390" />
            </Array>
          </mxGeometry>
        </mxCell>
        <mxCell id="kKzOYmPIptr4s1DpzFux-17" value="" style="curved=1;startArrow=none;endArrow=block;exitX=0.5;exitY=1;entryX=0;entryY=0.32;rounded=0;" edge="1" parent="1" source="kKzOYmPIptr4s1DpzFux-8" target="kKzOYmPIptr4s1DpzFux-3">
          <mxGeometry relative="1" as="geometry">
            <Array as="points">
              <mxPoint x="128" y="266" />
            </Array>
          </mxGeometry>
        </mxCell>
        <mxCell id="kKzOYmPIptr4s1DpzFux-18" value="" style="curved=1;startArrow=none;endArrow=block;exitX=0.5;exitY=1;entryX=0;entryY=0.17;rounded=0;" edge="1" parent="1" source="kKzOYmPIptr4s1DpzFux-9" target="kKzOYmPIptr4s1DpzFux-3">
          <mxGeometry relative="1" as="geometry">
            <Array as="points">
              <mxPoint x="236" y="266" />
            </Array>
          </mxGeometry>
        </mxCell>
        <mxCell id="kKzOYmPIptr4s1DpzFux-19" value="" style="curved=1;startArrow=none;endArrow=block;exitX=0.1;exitY=1;entryX=0.5;entryY=0;rounded=0;" edge="1" parent="1" source="kKzOYmPIptr4s1DpzFux-9" target="kKzOYmPIptr4s1DpzFux-8">
          <mxGeometry relative="1" as="geometry">
            <Array as="points">
              <mxPoint x="128" y="119" />
            </Array>
          </mxGeometry>
        </mxCell>
        <mxCell id="kKzOYmPIptr4s1DpzFux-20" value="" style="curved=1;startArrow=none;endArrow=block;exitX=0.5;exitY=1;entryX=0.84;entryY=0;rounded=0;" edge="1" parent="1" source="kKzOYmPIptr4s1DpzFux-10" target="kKzOYmPIptr4s1DpzFux-4">
          <mxGeometry relative="1" as="geometry">
            <Array as="points">
              <mxPoint x="926" y="365" />
              <mxPoint x="188" y="390" />
            </Array>
          </mxGeometry>
        </mxCell>
        <mxCell id="kKzOYmPIptr4s1DpzFux-21" value="" style="curved=1;startArrow=none;endArrow=block;exitX=0.5;exitY=1;entryX=0.64;entryY=0;rounded=0;" edge="1" parent="1" source="kKzOYmPIptr4s1DpzFux-11" target="kKzOYmPIptr4s1DpzFux-7">
          <mxGeometry relative="1" as="geometry">
            <Array as="points">
              <mxPoint x="1123" y="365" />
              <mxPoint x="733" y="390" />
            </Array>
          </mxGeometry>
        </mxCell>
        <mxCell id="kKzOYmPIptr4s1DpzFux-22" value="Schedules" style="curved=1;startArrow=none;endArrow=block;exitX=0;exitY=0.74;entryX=1;entryY=0.29;rounded=0;" edge="1" parent="1" source="kKzOYmPIptr4s1DpzFux-12" target="kKzOYmPIptr4s1DpzFux-3">
          <mxGeometry relative="1" as="geometry">
            <Array as="points">
              <mxPoint x="574" y="230" />
              <mxPoint x="574" y="266" />
            </Array>
          </mxGeometry>
        </mxCell>
        <mxCell id="kKzOYmPIptr4s1DpzFux-23" value="Manages" style="curved=1;startArrow=none;endArrow=block;rounded=0;" edge="1" parent="1" source="kKzOYmPIptr4s1DpzFux-12" target="kKzOYmPIptr4s1DpzFux-2">
          <mxGeometry relative="1" as="geometry">
            <Array as="points" />
          </mxGeometry>
        </mxCell>
      </root>
    </mxGraphModel>
  </diagram>
</mxfile>
